<svg preserveAspectRatio="none" width="100%" height="100%" overflow="visible" style="display: block;" viewBox="0 0 32 32" fill="none" xmlns="http://www.w3.org/2000/svg">
<g id="Icon">
<path id="Vector" d="M24 24C26.2091 24 28 22.2091 28 20C28 17.7909 26.2091 16 24 16C21.7909 16 20 17.7909 20 20C20 22.2091 21.7909 24 24 24Z" stroke="var(--stroke-0, #1E3A8A)" stroke-width="2.66667" stroke-linecap="round" stroke-linejoin="round"/>
<path id="Vector_2" d="M12 14.6667C14.9455 14.6667 17.3333 12.2789 17.3333 9.33333C17.3333 6.38781 14.9455 4 12 4C9.05448 4 6.66667 6.38781 6.66667 9.33333C6.66667 12.2789 9.05448 14.6667 12 14.6667Z" stroke="var(--stroke-0, #1E3A8A)" stroke-width="2.66667" stroke-linecap="round" stroke-linejoin="round"/>
<path id="Vector_3" d="M13.3333 20H8C6.58551 20 5.22896 20.5619 4.22876 21.5621C3.22857 22.5623 2.66667 23.9188 2.66667 25.3333V28" stroke="var(--stroke-0, #1E3A8A)" stroke-width="2.66667" stroke-linecap="round" stroke-linejoin="round"/>
<path id="Vector_4" d="M28.9333 21.8667L27.7333 21.4667" stroke="var(--stroke-0, #1E3A8A)" stroke-width="2.66667" stroke-linecap="round" stroke-linejoin="round"/>
<path id="Vector_5" d="M20.2667 18.5333L19.0667 18.1333" stroke="var(--stroke-0, #1E3A8A)" stroke-width="2.66667" stroke-linecap="round" stroke-linejoin="round"/>
<path id="Vector_6" d="M22.1333 24.9333L22.5333 23.7333" stroke="var(--stroke-0, #1E3A8A)" stroke-width="2.66667" stroke-linecap="round" stroke-linejoin="round"/>
<path id="Vector_7" d="M25.4667 16.2667L25.8667 15.0667" stroke="var(--stroke-0, #1E3A8A)" stroke-width="2.66667" stroke-linecap="round" stroke-linejoin="round"/>
<path id="Vector_8" d="M26.1333 24.9333L25.6 23.6" stroke="var(--stroke-0, #1E3A8A)" stroke-width="2.66667" stroke-linecap="round" stroke-linejoin="round"/>
<path id="Vector_9" d="M22.4 16.4L21.8667 15.0667" stroke="var(--stroke-0, #1E3A8A)" stroke-width="2.66667" stroke-linecap="round" stroke-linejoin="round"/>
<path id="Vector_10" d="M19.0667 22.1333L20.4 21.6" stroke="var(--stroke-0, #1E3A8A)" stroke-width="2.66667" stroke-linecap="round" stroke-linejoin="round"/>
<path id="Vector_11" d="M27.6 18.4L28.9333 17.8667" stroke="var(--stroke-0, #1E3A8A)" stroke-width="2.66667" stroke-linecap="round" stroke-linejoin="round"/>
</g>
</svg>
